<svg width="1440" height="1024" viewBox="0 0 1440 1024" fill="none" xmlns="http://www.w3.org/2000/svg">
<g clip-path="url(#clip0)">
<rect width="1440" height="1024" fill="white"/>
<rect width="1440" height="1024" fill="#7EAED7"/>
<path opacity="0.57" d="M197.19 755.66L177.452 743.212C179.444 731.471 179.444 719.427 177.452 707.687L197.19 695.238C199.46 693.821 200.48 690.886 199.738 688.154C194.595 670.139 185.838 653.844 174.394 640.282C172.633 638.207 169.761 637.701 167.537 639.118L147.799 651.567C139.505 643.773 129.96 637.752 119.628 633.804V608.957C119.628 606.124 117.821 603.644 115.273 603.037C98.2685 598.887 80.8472 599.09 64.6769 603.037C62.1285 603.644 60.3215 606.124 60.3215 608.957V633.855C50.0356 637.853 40.4909 643.875 32.1509 651.617L12.4593 639.168C10.189 637.752 7.36263 638.207 5.60196 640.332C-5.84235 653.844 -14.5993 670.139 -19.7423 688.204C-20.53 690.937 -19.4643 693.872 -17.194 695.289L2.54397 707.738C0.551636 719.478 0.551636 731.522 2.54397 743.262L-17.194 755.711C-19.4643 757.128 -20.4837 760.063 -19.7423 762.796C-14.5993 780.811 -5.84235 797.106 5.60196 810.668C7.36263 812.742 10.2353 813.248 12.4593 811.832L32.1973 799.383C40.4909 807.176 50.0356 813.198 60.3679 817.145V842.042C60.3679 844.876 62.1749 847.356 64.7232 847.963C81.7275 852.113 99.1488 851.91 115.319 847.963C117.867 847.356 119.674 844.876 119.674 842.042V817.145C129.96 813.147 139.505 807.125 147.845 799.383L167.583 811.832C169.853 813.248 172.68 812.793 174.44 810.668C185.885 797.156 194.642 780.861 199.785 762.796C200.48 760.012 199.46 757.077 197.19 755.66ZM89.9748 765.933C69.5419 765.933 52.9082 747.766 52.9082 725.449C52.9082 703.133 69.5419 684.966 89.9748 684.966C110.408 684.966 127.041 703.133 127.041 725.449C127.041 747.766 110.408 765.933 89.9748 765.933Z" fill="#275077"/>
<path opacity="0.57" d="M1184.8 860.552L1169.37 850.831C1170.93 841.663 1170.93 832.258 1169.37 823.09L1184.8 813.369C1186.58 812.263 1187.38 809.971 1186.8 807.837C1182.77 793.77 1175.93 781.045 1166.98 770.455C1165.6 768.835 1163.36 768.44 1161.62 769.546L1146.19 779.267C1139.7 773.182 1132.24 768.479 1124.16 765.397V745.995C1124.16 743.782 1122.75 741.846 1120.76 741.371C1107.46 738.131 1093.84 738.289 1081.2 741.371C1079.21 741.846 1077.8 743.782 1077.8 745.995V765.437C1069.76 768.558 1062.29 773.261 1055.77 779.307L1040.38 769.586C1038.6 768.479 1036.39 768.835 1035.02 770.495C1026.07 781.045 1019.22 793.77 1015.2 807.877C1014.59 810.011 1015.42 812.303 1017.19 813.409L1032.63 823.13C1031.07 832.298 1031.07 841.702 1032.63 850.87L1017.19 860.591C1015.42 861.697 1014.62 863.989 1015.2 866.123C1019.22 880.191 1026.07 892.915 1035.02 903.505C1036.39 905.126 1038.64 905.521 1040.38 904.414L1055.81 894.693C1062.29 900.779 1069.76 905.481 1077.83 908.563V928.005C1077.83 930.218 1079.25 932.154 1081.24 932.629C1094.53 935.869 1108.15 935.711 1120.79 932.629C1122.79 932.154 1124.2 930.218 1124.2 928.005V908.563C1132.24 905.442 1139.7 900.739 1146.22 894.693L1161.66 904.414C1163.43 905.521 1165.64 905.165 1167.02 903.505C1175.96 892.955 1182.81 880.23 1186.83 866.123C1187.38 863.95 1186.58 861.658 1184.8 860.552ZM1100.98 868.573C1085.01 868.573 1072 854.387 1072 836.96C1072 819.534 1085.01 805.348 1100.98 805.348C1116.96 805.348 1129.96 819.534 1129.96 836.96C1129.96 854.387 1116.96 868.573 1100.98 868.573Z" fill="#275077"/>
<path opacity="0.57" d="M776.803 756.552L761.372 746.831C762.929 737.663 762.929 728.258 761.372 719.09L776.803 709.369C778.578 708.263 779.375 705.971 778.795 703.837C774.775 689.77 767.928 677.045 758.981 666.455C757.604 664.835 755.358 664.44 753.62 665.546L738.188 675.267C731.704 669.182 724.242 664.479 716.164 661.397V641.995C716.164 639.782 714.751 637.846 712.759 637.371C699.464 634.131 685.844 634.289 673.202 637.371C671.21 637.846 669.797 639.782 669.797 641.995V661.437C661.755 664.558 654.293 669.261 647.773 675.307L632.377 665.586C630.602 664.479 628.393 664.835 627.016 666.495C618.069 677.045 611.222 689.77 607.201 703.877C606.586 706.011 607.419 708.303 609.194 709.409L624.625 719.13C623.068 728.298 623.068 737.702 624.625 746.87L609.194 756.591C607.419 757.697 606.622 759.989 607.201 762.123C611.222 776.191 618.069 788.915 627.016 799.505C628.393 801.126 630.638 801.521 632.377 800.414L647.809 790.693C654.293 796.779 661.755 801.481 669.833 804.563V824.005C669.833 826.218 671.246 828.154 673.238 828.629C686.532 831.869 700.153 831.711 712.795 828.629C714.787 828.154 716.2 826.218 716.2 824.005V804.563C724.242 801.442 731.704 796.739 738.224 790.693L753.656 800.414C755.431 801.521 757.64 801.165 759.017 799.505C767.964 788.955 774.811 776.23 778.832 762.123C779.375 759.95 778.578 757.658 776.803 756.552ZM692.98 764.573C677.005 764.573 664.001 750.387 664.001 732.96C664.001 715.534 677.005 701.348 692.98 701.348C708.955 701.348 721.96 715.534 721.96 732.96C721.96 750.387 708.955 764.573 692.98 764.573Z" fill="#275077"/>
<path opacity="0.57" d="M1020.88 583.21L1005.99 573.837C1007.49 564.996 1007.49 555.927 1005.99 547.087L1020.88 537.713C1022.59 536.646 1023.36 534.436 1022.8 532.379C1018.92 518.813 1012.31 506.544 1003.68 496.332C1002.35 494.769 1000.18 494.388 998.505 495.455L983.612 504.829C977.354 498.961 970.152 494.426 962.356 491.454V472.745C962.356 470.611 960.992 468.744 959.069 468.287C946.239 465.162 933.094 465.314 920.893 468.287C918.97 468.744 917.606 470.611 917.606 472.745V491.492C909.845 494.503 902.643 499.037 896.35 504.867L881.492 495.493C879.779 494.426 877.646 494.769 876.318 496.37C867.683 506.544 861.075 518.813 857.194 532.417C856.6 534.474 857.404 536.685 859.117 537.751L874.01 547.125C872.507 555.966 872.507 565.034 874.01 573.875L859.117 583.248C857.404 584.315 856.635 586.525 857.194 588.583C861.075 602.148 867.683 614.418 876.318 624.63C877.646 626.192 879.814 626.574 881.492 625.507L896.385 616.133C902.643 622.001 909.845 626.535 917.641 629.508V648.255C917.641 650.389 919.005 652.256 920.928 652.713C933.758 655.838 946.903 655.686 959.104 652.713C961.027 652.256 962.391 650.389 962.391 648.255V629.508C970.152 626.497 977.354 621.963 983.647 616.133L998.54 625.507C1000.25 626.574 1002.39 626.231 1003.71 624.63C1012.35 614.456 1018.96 602.187 1022.84 588.583C1023.36 586.487 1022.59 584.277 1020.88 583.21ZM939.981 590.946C924.563 590.946 912.013 577.266 912.013 560.462C912.013 543.658 924.563 529.978 939.981 529.978C955.399 529.978 967.949 543.658 967.949 560.462C967.949 577.266 955.399 590.946 939.981 590.946Z" fill="#275077"/>
<path opacity="0.57" d="M1497 621.203L1475.91 607.911C1478.04 595.376 1478.04 582.516 1475.91 569.981L1497 556.689C1499.42 555.176 1500.51 552.042 1499.72 549.124C1494.23 529.889 1484.87 512.491 1472.65 498.01C1470.77 495.795 1467.7 495.254 1465.32 496.767L1444.24 510.059C1435.38 501.738 1425.19 495.308 1414.15 491.094V464.564C1414.15 461.538 1412.22 458.891 1409.5 458.242C1391.33 453.812 1372.72 454.028 1355.45 458.242C1352.73 458.891 1350.8 461.538 1350.8 464.564V491.148C1339.81 495.416 1329.62 501.846 1320.71 510.113L1299.67 496.821C1297.25 495.308 1294.23 495.795 1292.35 498.064C1280.12 512.491 1270.77 529.889 1265.28 549.178C1264.43 552.096 1265.57 555.23 1268 556.743L1289.08 570.035C1286.95 582.57 1286.95 595.43 1289.08 607.965L1268 621.257C1265.57 622.77 1264.48 625.904 1265.28 628.822C1270.77 648.057 1280.12 665.455 1292.35 679.936C1294.23 682.151 1297.3 682.692 1299.67 681.179L1320.76 667.887C1329.62 676.208 1339.81 682.638 1350.85 686.852V713.436C1350.85 716.462 1352.78 719.109 1355.5 719.758C1373.66 724.188 1392.27 723.972 1409.55 719.758C1412.27 719.109 1414.2 716.462 1414.2 713.436V686.852C1425.19 682.584 1435.38 676.154 1444.29 667.887L1465.37 681.179C1467.8 682.692 1470.82 682.205 1472.7 679.936C1484.92 665.509 1494.28 648.111 1499.77 628.822C1500.51 625.85 1499.42 622.716 1497 621.203ZM1382.47 632.172C1360.65 632.172 1342.88 612.774 1342.88 588.946C1342.88 565.118 1360.65 545.72 1382.47 545.72C1404.3 545.72 1422.07 565.118 1422.07 588.946C1422.07 612.774 1404.3 632.172 1382.47 632.172Z" fill="#275077"/>
<path opacity="0.57" d="M521.998 558.203L500.915 544.911C503.043 532.376 503.043 519.516 500.915 506.981L521.998 493.689C524.424 492.176 525.512 489.042 524.72 486.124C519.227 466.889 509.873 449.491 497.648 435.01C495.767 432.795 492.699 432.254 490.323 433.767L469.24 447.059C460.38 438.738 450.185 432.308 439.148 428.094V401.564C439.148 398.538 437.218 395.891 434.496 395.242C416.332 390.812 397.723 391.028 380.45 395.242C377.728 395.891 375.798 398.538 375.798 401.564V428.148C364.811 432.416 354.615 438.846 345.707 447.113L324.672 433.821C322.247 432.308 319.228 432.795 317.348 435.064C305.123 449.491 295.769 466.889 290.275 486.178C289.434 489.096 290.572 492.23 292.997 493.743L314.081 507.035C311.953 519.57 311.953 532.43 314.081 544.965L292.997 558.257C290.572 559.77 289.483 562.904 290.275 565.822C295.769 585.057 305.123 602.455 317.348 616.936C319.228 619.151 322.297 619.692 324.672 618.179L345.756 604.887C354.615 613.208 364.811 619.638 375.848 623.852V650.436C375.848 653.462 377.778 656.109 380.5 656.758C398.663 661.188 417.273 660.972 434.545 656.758C437.268 656.109 439.198 653.462 439.198 650.436V623.852C450.185 619.584 460.38 613.154 469.289 604.887L490.373 618.179C492.798 619.692 495.817 619.205 497.698 616.936C509.922 602.509 519.276 585.111 524.77 565.822C525.512 562.85 524.424 559.716 521.998 558.203ZM407.473 569.172C385.647 569.172 367.879 549.774 367.879 525.946C367.879 502.118 385.647 482.72 407.473 482.72C429.299 482.72 447.067 502.118 447.067 525.946C447.067 549.774 429.299 569.172 407.473 569.172Z" fill="#275077"/>
<path opacity="0.57" d="M456.34 898.644L444.676 891.155C445.853 884.092 445.853 876.847 444.676 869.784L456.34 862.295C457.681 861.442 458.283 859.677 457.845 858.033C454.806 847.195 449.632 837.392 442.869 829.233C441.829 827.985 440.131 827.681 438.817 828.533L427.154 836.022C422.253 831.334 416.613 827.711 410.508 825.337V810.389C410.508 808.684 409.44 807.192 407.934 806.827C397.886 804.331 387.592 804.452 378.036 806.827C376.53 807.192 375.463 808.684 375.463 810.389V825.367C369.385 827.772 363.745 831.395 358.816 836.053L347.18 828.564C345.839 827.711 344.169 827.985 343.128 829.264C336.366 837.392 331.191 847.195 328.152 858.063C327.687 859.707 328.317 861.473 329.658 862.325L341.321 869.814C340.144 876.877 340.144 884.123 341.321 891.186L329.658 898.675C328.317 899.527 327.714 901.293 328.152 902.937C331.191 913.775 336.366 923.577 343.128 931.736C344.169 932.984 345.866 933.289 347.18 932.437L358.844 924.947C363.745 929.636 369.385 933.258 375.49 935.633V950.611C375.49 952.316 376.558 953.808 378.064 954.173C388.112 956.669 398.406 956.548 407.961 954.173C409.467 953.808 410.535 952.316 410.535 950.611V935.633C416.613 933.228 422.253 929.605 427.181 924.947L438.845 932.437C440.186 933.289 441.856 933.015 442.897 931.736C449.659 923.608 454.834 913.805 457.873 902.937C458.283 901.262 457.681 899.497 456.34 898.644ZM392.985 904.824C380.911 904.824 371.082 893.895 371.082 880.47C371.082 867.044 380.911 856.115 392.985 856.115C405.059 856.115 414.888 867.044 414.888 880.47C414.888 893.895 405.059 904.824 392.985 904.824Z" fill="#275077"/>
<rect y="235" width="1439" height="789" fill="#5086B9" fill-opacity="0.75"/>
<g filter="url(#filter0_d)">
<rect x="287.122" y="789.501" width="288.981" height="15.6759" rx="7.83794" fill="#275077"/>
<rect x="402.987" y="740.428" width="57.251" height="59.2957" fill="#275077"/>
<rect x="130" y="432" width="589" height="309.473" rx="12" fill="#275077" stroke="#275077" stroke-width="2"/>
<rect x="141.577" y="443.986" width="565.846" height="285.5" rx="16" fill="#87B9E8" stroke="#275077" stroke-width="10"/>
<rect x="160.147" y="457.355" width="287.514" height="189.28" rx="10" fill="#5FA9EE"/>
<rect x="168.134" y="487.64" width="271.541" height="151.424" fill="white"/>
<ellipse cx="403.735" cy="468.712" rx="3.99324" ry="3.78559" fill="white"/>
<ellipse cx="435.681" cy="468.712" rx="3.99324" ry="3.78559" fill="white"/>
<ellipse cx="419.708" cy="468.712" rx="3.99324" ry="3.78559" fill="white"/>
<rect x="184.107" y="472.498" width="191.676" height="7.57119" rx="3.78559" fill="white"/>
<ellipse cx="208.066" cy="510.354" rx="15.973" ry="15.1424" fill="#5FA9EE"/>
<rect x="232.026" y="507.325" width="31.9459" height="7.57119" rx="3.78559" fill="#5FA9EE"/>
<rect x="319.877" y="558.052" width="31.9459" height="7.57119" rx="3.78559" fill="#5FA9EE"/>
<rect x="319.877" y="573.952" width="95.8378" height="3.02848" rx="1.51424" fill="#5FA9EE"/>
<rect x="319.877" y="581.523" width="91.8446" height="3.02848" rx="1.51424" fill="#5FA9EE"/>
<rect x="319.877" y="589.094" width="91.8446" height="3.02848" rx="1.51424" fill="#5FA9EE"/>
<rect x="319.877" y="596.665" width="87.8513" height="3.02848" rx="1.51424" fill="#5FA9EE"/>
<rect x="319.877" y="604.236" width="71.8784" height="3.02848" rx="1.51424" fill="#5FA9EE"/>
<rect x="319.877" y="611.808" width="39.9324" height="3.02848" rx="1.51424" fill="#5FA9EE"/>
<rect x="399.742" y="505.811" width="15.973" height="2.27136" rx="1.13568" fill="#5FA9EE"/>
<rect x="399.742" y="510.354" width="15.973" height="2.27136" rx="1.13568" fill="#5FA9EE"/>
<rect x="399.742" y="514.896" width="15.973" height="2.27136" rx="1.13568" fill="#5FA9EE"/>
<rect x="176.12" y="532.31" width="255.568" height="0.757119" fill="#5FA9EE"/>
<rect x="192.093" y="552.752" width="103.824" height="68.1407" rx="7" fill="#5FA9EE"/>
<rect x="400.541" y="522.845" width="287.514" height="191.676" rx="10" fill="#5FA9EE"/>
<rect x="408.527" y="538.818" width="271.541" height="168.515" fill="white"/>
<ellipse cx="643.33" cy="530.623" rx="3.99324" ry="3.78559" fill="white"/>
<ellipse cx="675.276" cy="530.623" rx="3.99324" ry="3.78559" fill="white"/>
<ellipse cx="659.303" cy="530.623" rx="3.99324" ry="3.78559" fill="white"/>
<rect x="415.715" y="691.359" width="48.7176" height="7.18784" rx="3.59392" fill="#5FA9EE"/>
<rect x="426.497" y="562.777" width="8.9848" height="3.74367" rx="1.87183" fill="#5FA9EE"/>
<path d="M420.507 564.649L417.512 566.27V563.028L420.507 564.649Z" fill="#5FA9EE"/>
<rect x="426.497" y="600.214" width="25.3737" height="3.54899" rx="1.7745" fill="#5FA9EE"/>
<path d="M420.507 602.086L417.512 603.707V600.464L420.507 602.086Z" fill="#5FA9EE"/>
<rect x="426.497" y="609.573" width="20.9645" height="3.74367" rx="1.87183" fill="#5FA9EE"/>
<path d="M420.507 611.445L417.512 613.066V609.824L420.507 611.445Z" fill="#5FA9EE"/>
<rect x="426.497" y="618.932" width="23.9595" height="3.74367" rx="1.87183" fill="#5FA9EE"/>
<path d="M420.507 620.804L417.512 622.425V619.183L420.507 620.804Z" fill="#5FA9EE"/>
<rect x="434.483" y="590.855" width="29.9493" height="3.74367" rx="1.87183" fill="#5FA9EE"/>
<rect x="434.483" y="581.495" width="19.9662" height="3.74367" rx="1.87183" fill="#5FA9EE"/>
<rect x="426.497" y="582.431" width="2.99493" height="1.87183" fill="#5FA9EE"/>
<rect x="426.497" y="591.79" width="2.99493" height="1.87183" fill="#5FA9EE"/>
<rect x="426.497" y="572.136" width="12.978" height="3.74367" rx="1.87183" fill="#5FA9EE"/>
<path d="M418.51 575.88L416.781 573.072H420.239L418.51 575.88Z" fill="#5FA9EE"/>
<rect x="415.715" y="553.992" width="255.568" height="0.757119" fill="#5FA9EE"/>
<rect x="480.107" y="571.264" width="190.676" height="126.784" rx="0.5" fill="#5FA9EE" stroke="#5FA9EE"/>
<rect x="667.789" y="571.264" width="2.99324" height="126.784" rx="0.5" fill="white" stroke="#5FA9EE"/>
<rect x="667.289" y="610.696" width="3.99324" height="31.9459" rx="1" fill="#5FA9EE"/>
<rect x="469.724" y="563.277" width="2.99324" height="126.784" rx="0.5" fill="white" stroke="#5FA9EE"/>
<rect x="469.224" y="602.709" width="3.99324" height="31.9459" rx="1" fill="#5FA9EE"/>
<rect x="480.107" y="563.277" width="22.9595" height="7.78514" rx="1.5" stroke="#5FA9EE"/>
<rect x="420.507" y="545.207" width="8.9848" height="3.74367" rx="1.87183" fill="#5FA9EE"/>
<rect x="440.473" y="545.207" width="8.9848" height="3.74367" rx="1.87183" fill="#5FA9EE"/>
<rect x="460.439" y="545.207" width="8.9848" height="3.74367" rx="1.87183" fill="#5FA9EE"/>
<rect x="480.405" y="545.207" width="8.9848" height="3.74367" rx="1.87183" fill="#5FA9EE"/>
<rect x="500.372" y="545.207" width="8.9848" height="3.74367" rx="1.87183" fill="#5FA9EE"/>
<path d="M529.281 634.359L551.289 643.254V650.145L522.531 636.82V631.688L551.289 618.398V625.289L529.281 634.359ZM562.855 661.395H557.266L578.641 605.812H584.195L562.855 661.395ZM614.254 634.148L591.016 625.043V618.363L621.039 631.652V636.785L591.016 650.109V643.359L614.254 634.148Z" fill="white"/>
</g>
<path d="M641.208 198.032C637.896 201.92 632.856 203.864 626.088 203.864C619.32 203.864 614.256 201.896 610.896 197.96C607.584 194.024 605.928 188.648 605.928 181.832V151.52H609.384V181.832C609.384 194.504 614.928 200.84 626.016 200.84C637.152 200.84 642.72 194.504 642.72 181.832V151.52H646.176V181.832C646.176 188.696 644.52 194.096 641.208 198.032ZM663.718 203V155.984H665.302L695.974 191.264C697.078 192.512 698.086 193.76 698.998 195.008C699.958 196.208 700.462 196.832 700.51 196.88C700.414 195.728 700.366 193.472 700.366 190.112V156.272H703.678V203.288H702.094L670.846 167.432L666.886 162.608C666.982 163.568 667.03 165.824 667.03 169.376V203H663.718ZM735.928 200.552C742.072 200.552 746.992 198.896 750.688 195.584C754.432 192.272 756.304 187.28 756.304 180.608C756.304 173.936 754.192 168.632 749.968 164.696C745.792 160.76 740.632 158.792 734.488 158.792C730.12 158.792 726.76 158.888 724.408 159.08V200.048C727.288 200.384 731.128 200.552 735.928 200.552ZM734.488 155.84C741.688 155.84 747.688 158.072 752.488 162.536C757.336 166.952 759.76 172.976 759.76 180.608C759.76 188.24 757.528 193.976 753.064 197.816C748.648 201.656 742.936 203.576 735.928 203.576C731.08 203.576 726.088 203.336 720.952 202.856V156.272C724.792 155.984 729.304 155.84 734.488 155.84ZM774.179 203V156.272H795.995V159.152H777.491V176.144H794.195V178.952H777.491V199.976H796.715V203H774.179ZM809.968 203V156.488C814.096 156.152 817.6 155.984 820.48 155.984C824.896 155.984 828.544 157.136 831.424 159.44C834.304 161.696 835.744 164.936 835.744 169.16C835.744 171.992 834.928 174.608 833.296 177.008C831.664 179.408 829.816 181.352 827.752 182.84C833.464 190.424 836.992 194.96 838.336 196.448C841.072 199.28 844.048 200.888 847.264 201.272L847.192 203.504C844.504 203.456 842.32 203.072 840.64 202.352C838.96 201.584 837.28 200.312 835.6 198.536C833.968 196.76 830.344 191.984 824.728 184.208C820.84 184.208 817.024 184.088 813.28 183.848V203H809.968ZM822.928 181.472C824.8 181.472 826.816 180.224 828.976 177.728C831.136 175.232 832.216 172.328 832.216 169.016C832.216 165.704 831.088 163.184 828.832 161.456C826.576 159.728 823.648 158.864 820.048 158.864C818.128 158.864 815.872 158.96 813.28 159.152V181.112C816.736 181.352 819.952 181.472 822.928 181.472ZM897.07 200.48C903.838 200.48 909.262 198.656 913.342 195.008C917.47 191.312 919.534 185.768 919.534 178.376C919.534 170.984 917.206 165.104 912.55 160.736C907.942 156.368 902.23 154.184 895.414 154.184C891.046 154.184 887.254 154.304 884.038 154.544V199.904C887.158 200.288 891.502 200.48 897.07 200.48ZM895.414 151.016C903.334 151.016 909.958 153.488 915.286 158.432C920.614 163.328 923.278 170 923.278 178.448C923.278 182.72 922.582 186.512 921.19 189.824C919.846 193.088 917.974 195.704 915.574 197.672C910.63 201.656 904.462 203.648 897.07 203.648C892.222 203.648 886.726 203.384 880.582 202.856V151.52C885.478 151.184 890.422 151.016 895.414 151.016ZM938.429 203V156.272H960.245V159.152H941.741V176.144H958.445V178.952H941.741V199.976H960.965V203H938.429ZM989.482 193.208L1005.11 156.272H1008.56L988.474 203.288H986.53L966.442 156.272H970.042L987.682 197.816C987.922 197.096 988.522 195.56 989.482 193.208ZM1018.09 203V156.272H1039.91V159.152H1021.41V176.144H1038.11V178.952H1021.41V199.976H1040.63V203H1018.09ZM1053.88 203V156.272H1057.19V199.976H1078.65V203H1053.88ZM1106.26 203.72C1099.59 203.72 1093.99 201.392 1089.48 196.736C1084.97 192.08 1082.71 186.392 1082.71 179.672C1082.71 172.904 1084.97 167.192 1089.48 162.536C1093.99 157.88 1099.59 155.552 1106.26 155.552C1112.93 155.552 1118.52 157.88 1123.03 162.536C1127.55 167.192 1129.8 172.904 1129.8 179.672C1129.8 186.392 1127.55 192.08 1123.03 196.736C1118.52 201.392 1112.93 203.72 1106.26 203.72ZM1106.26 158.504C1100.5 158.504 1095.7 160.544 1091.86 164.624C1088.07 168.704 1086.17 173.72 1086.17 179.672C1086.17 185.576 1088.07 190.568 1091.86 194.648C1095.7 198.68 1100.5 200.696 1106.26 200.696C1112.07 200.696 1116.87 198.68 1120.66 194.648C1124.45 190.568 1126.35 185.576 1126.35 179.672C1126.35 173.72 1124.45 168.704 1120.66 164.624C1116.87 160.544 1112.07 158.504 1106.26 158.504ZM1144.23 203V156.56C1147.83 156.176 1151.63 155.984 1155.61 155.984C1159.64 155.984 1163.05 157.064 1165.83 159.224C1168.62 161.336 1170.01 164.552 1170.01 168.872C1170.01 173.192 1168.11 176.744 1164.32 179.528C1160.53 182.264 1156.04 183.632 1150.86 183.632C1150.62 183.632 1150.35 183.632 1150.07 183.632V181.328C1150.26 181.328 1150.43 181.328 1150.57 181.328C1154.84 181.328 1158.56 180.2 1161.73 177.944C1164.9 175.688 1166.48 172.76 1166.48 169.16C1166.48 165.56 1165.35 162.944 1163.1 161.312C1160.89 159.68 1157.96 158.864 1154.31 158.864C1152.39 158.864 1150.14 158.96 1147.55 159.152V203H1144.23ZM1203.38 200.552H1201.44L1187.83 167.504C1187.25 166.208 1186.68 164.696 1186.1 162.968C1186.1 163.016 1186.05 163.28 1185.96 163.76C1185.91 164.24 1185.84 164.888 1185.74 165.704C1185.65 166.472 1185.55 167.12 1185.45 167.648L1180.05 203H1176.81L1184.45 155.984H1186.39L1200.93 190.472C1202.09 193.352 1202.66 194.864 1202.66 195.008C1203 194 1203.65 192.512 1204.61 190.544L1220.81 155.984H1222.75L1229.88 203H1226.42L1221.31 167.504C1220.97 165.152 1220.81 163.592 1220.81 162.824L1218.72 167.576L1203.38 200.552ZM1242.25 203V156.272H1264.07V159.152H1245.56V176.144H1262.27V178.952H1245.56V199.976H1264.79V203H1242.25ZM1278.04 203V155.984H1279.62L1310.29 191.264C1311.4 192.512 1312.41 193.76 1313.32 195.008C1314.28 196.208 1314.78 196.832 1314.83 196.88C1314.73 195.728 1314.69 193.472 1314.69 190.112V156.272H1318V203.288H1316.41L1285.17 167.432L1281.21 162.608C1281.3 163.568 1281.35 165.824 1281.35 169.376V203H1278.04ZM1343.62 159.224H1327.78V156.272H1362.7V159.224H1346.86V203H1343.62V159.224Z" fill="white"/>
<g filter="url(#filter1_d)">
<path d="M758.504 534.772H749.792V533.26H768.944V534.772H760.232V559H758.504V534.772ZM791.075 559V547.192H774.839V559H773.183V535.636H774.839V545.716H791.075V535.636H792.731V559H791.075ZM801.379 559V535.636H803.035V559H801.379ZM816.395 536.644C815.099 536.644 814.043 536.956 813.227 537.58C812.411 538.204 812.003 539.08 812.003 540.208C812.003 541.504 812.543 542.668 813.623 543.7C814.391 544.444 815.375 545.236 816.575 546.076C817.799 546.892 818.639 547.48 819.095 547.84C819.551 548.2 820.103 548.692 820.751 549.316C821.927 550.492 822.515 551.848 822.515 553.384C822.515 555.376 821.843 556.888 820.499 557.92C819.179 558.928 817.319 559.432 814.919 559.432C812.543 559.432 810.551 558.808 808.943 557.56L809.807 556.3C811.439 557.404 813.167 557.956 814.991 557.956C816.815 557.956 818.231 557.572 819.239 556.804C820.271 556.036 820.787 554.956 820.787 553.564C820.787 552.364 820.271 551.26 819.239 550.252C818.519 549.532 817.547 548.752 816.323 547.912C815.123 547.072 814.283 546.472 813.803 546.112C813.323 545.728 812.759 545.224 812.111 544.6C810.887 543.376 810.275 541.96 810.275 540.352C810.275 538.744 810.839 537.484 811.967 536.572C813.119 535.66 814.703 535.204 816.719 535.204C818.735 535.204 820.547 535.6 822.155 536.392L821.543 537.724C820.055 537.004 818.339 536.644 816.395 536.644ZM846.841 536.644C845.545 536.644 844.489 536.956 843.673 537.58C842.857 538.204 842.449 539.08 842.449 540.208C842.449 541.504 842.989 542.668 844.069 543.7C844.837 544.444 845.821 545.236 847.021 546.076C848.245 546.892 849.085 547.48 849.541 547.84C849.997 548.2 850.549 548.692 851.197 549.316C852.373 550.492 852.961 551.848 852.961 553.384C852.961 555.376 852.289 556.888 850.945 557.92C849.625 558.928 847.765 559.432 845.365 559.432C842.989 559.432 840.997 558.808 839.389 557.56L840.253 556.3C841.885 557.404 843.613 557.956 845.437 557.956C847.261 557.956 848.677 557.572 849.685 556.804C850.717 556.036 851.233 554.956 851.233 553.564C851.233 552.364 850.717 551.26 849.685 550.252C848.965 549.532 847.993 548.752 846.769 547.912C845.569 547.072 844.729 546.472 844.249 546.112C843.769 545.728 843.205 545.224 842.557 544.6C841.333 543.376 840.721 541.96 840.721 540.352C840.721 538.744 841.285 537.484 842.413 536.572C843.565 535.66 845.149 535.204 847.165 535.204C849.181 535.204 850.993 535.6 852.601 536.392L851.989 537.724C850.501 537.004 848.785 536.644 846.841 536.644ZM859.597 559V535.636H861.253V559H859.597ZM874.074 537.112H866.154V535.636H883.614V537.112H875.694V559H874.074V537.112ZM888.496 559V535.636H899.404V537.076H890.152V545.572H898.504V546.976H890.152V557.488H899.764V559H888.496ZM919.363 559V535.636H921.019V559H919.363ZM934.38 536.644C933.084 536.644 932.028 536.956 931.212 537.58C930.396 538.204 929.988 539.08 929.988 540.208C929.988 541.504 930.528 542.668 931.608 543.7C932.376 544.444 933.36 545.236 934.56 546.076C935.784 546.892 936.624 547.48 937.08 547.84C937.536 548.2 938.088 548.692 938.736 549.316C939.912 550.492 940.5 551.848 940.5 553.384C940.5 555.376 939.828 556.888 938.484 557.92C937.164 558.928 935.304 559.432 932.904 559.432C930.528 559.432 928.536 558.808 926.928 557.56L927.792 556.3C929.424 557.404 931.152 557.956 932.976 557.956C934.8 557.956 936.216 557.572 937.224 556.804C938.256 556.036 938.772 554.956 938.772 553.564C938.772 552.364 938.256 551.26 937.224 550.252C936.504 549.532 935.532 548.752 934.308 547.912C933.108 547.072 932.268 546.472 931.788 546.112C931.308 545.728 930.744 545.224 930.096 544.6C928.872 543.376 928.26 541.96 928.26 540.352C928.26 538.744 928.824 537.484 929.952 536.572C931.104 535.66 932.688 535.204 934.704 535.204C936.72 535.204 938.532 535.6 940.14 536.392L939.528 537.724C938.04 537.004 936.324 536.644 934.38 536.644ZM976.741 556.588C975.157 558.436 972.745 559.36 969.505 559.36C966.265 559.36 963.853 558.436 962.269 556.588C960.685 554.74 959.893 552.184 959.893 548.92V535.636H961.549V548.92C961.549 554.896 964.201 557.884 969.505 557.884C974.809 557.884 977.461 554.896 977.461 548.92V535.636H979.117V548.92C979.117 552.184 978.325 554.74 976.741 556.588ZM987.531 559V535.492H988.323L1003.66 553.132C1004.21 553.756 1004.71 554.38 1005.17 555.004C1005.65 555.604 1005.9 555.916 1005.93 555.94C1005.88 555.364 1005.85 554.236 1005.85 552.556V535.636H1007.51V559.144H1006.72L991.095 541.216L989.115 538.804C989.163 539.284 989.187 540.412 989.187 542.188V559H987.531ZM1023.64 557.776C1026.71 557.776 1029.17 556.948 1031.02 555.292C1032.89 553.636 1033.82 551.14 1033.82 547.804C1033.82 544.468 1032.77 541.816 1030.66 539.848C1028.57 537.88 1025.99 536.896 1022.92 536.896C1020.73 536.896 1019.05 536.944 1017.88 537.04V557.524C1019.32 557.692 1021.24 557.776 1023.64 557.776ZM1022.92 535.42C1026.52 535.42 1029.52 536.536 1031.92 538.768C1034.34 540.976 1035.55 543.988 1035.55 547.804C1035.55 551.62 1034.44 554.488 1032.2 556.408C1030 558.328 1027.14 559.288 1023.64 559.288C1021.21 559.288 1018.72 559.168 1016.15 558.928V535.636C1018.07 535.492 1020.32 535.42 1022.92 535.42ZM1042.76 559V535.636H1053.67V537.076H1044.42V545.572H1052.77V546.976H1044.42V557.488H1054.03V559H1042.76ZM1060.66 559V535.744C1062.72 535.576 1064.47 535.492 1065.91 535.492C1068.12 535.492 1069.94 536.068 1071.38 537.22C1072.82 538.348 1073.54 539.968 1073.54 542.08C1073.54 543.496 1073.14 544.804 1072.32 546.004C1071.5 547.204 1070.58 548.176 1069.55 548.92C1072.4 552.712 1074.17 554.98 1074.84 555.724C1076.21 557.14 1077.7 557.944 1079.3 558.136L1079.27 559.252C1077.92 559.228 1076.83 559.036 1075.99 558.676C1075.15 558.292 1074.31 557.656 1073.47 556.768C1072.66 555.88 1070.84 553.492 1068.04 549.604C1066.09 549.604 1064.18 549.544 1062.31 549.424V559H1060.66ZM1067.14 548.236C1068.07 548.236 1069.08 547.612 1070.16 546.364C1071.24 545.116 1071.78 543.664 1071.78 542.008C1071.78 540.352 1071.22 539.092 1070.09 538.228C1068.96 537.364 1067.5 536.932 1065.7 536.932C1064.74 536.932 1063.61 536.98 1062.31 537.076V548.056C1064.04 548.176 1065.65 548.236 1067.14 548.236ZM1103.02 557.776C1106.09 557.776 1108.55 556.948 1110.4 555.292C1112.27 553.636 1113.21 551.14 1113.21 547.804C1113.21 544.468 1112.15 541.816 1110.04 539.848C1107.95 537.88 1105.37 536.896 1102.3 536.896C1100.11 536.896 1098.43 536.944 1097.26 537.04V557.524C1098.7 557.692 1100.62 557.776 1103.02 557.776ZM1102.3 535.42C1105.9 535.42 1108.9 536.536 1111.3 538.768C1113.72 540.976 1114.93 543.988 1114.93 547.804C1114.93 551.62 1113.82 554.488 1111.59 556.408C1109.38 558.328 1106.52 559.288 1103.02 559.288C1100.59 559.288 1098.1 559.168 1095.53 558.928V535.636C1097.45 535.492 1099.71 535.42 1102.3 535.42ZM1122.14 559V535.636H1133.05V537.076H1123.8V545.572H1132.15V546.976H1123.8V557.488H1133.41V559H1122.14ZM1147.67 554.104L1155.48 535.636H1157.21L1147.17 559.144H1146.19L1136.15 535.636H1137.95L1146.77 556.408C1146.89 556.048 1147.19 555.28 1147.67 554.104ZM1161.98 559V535.636H1172.88V537.076H1163.63V545.572H1171.98V546.976H1163.63V557.488H1173.24V559H1161.98ZM1179.87 559V535.636H1181.53V557.488H1192.25V559H1179.87ZM1206.06 559.36C1202.72 559.36 1199.93 558.196 1197.67 555.868C1195.41 553.54 1194.29 550.696 1194.29 547.336C1194.29 543.952 1195.41 541.096 1197.67 538.768C1199.93 536.44 1202.72 535.276 1206.06 535.276C1209.39 535.276 1212.19 536.44 1214.45 538.768C1216.7 541.096 1217.83 543.952 1217.83 547.336C1217.83 550.696 1216.7 553.54 1214.45 555.868C1212.19 558.196 1209.39 559.36 1206.06 559.36ZM1206.06 536.752C1203.18 536.752 1200.78 537.772 1198.86 539.812C1196.96 541.852 1196.01 544.36 1196.01 547.336C1196.01 550.288 1196.96 552.784 1198.86 554.824C1200.78 556.84 1203.18 557.848 1206.06 557.848C1208.96 557.848 1211.36 556.84 1213.26 554.824C1215.15 552.784 1216.1 550.288 1216.1 547.336C1216.1 544.36 1215.15 541.852 1213.26 539.812C1211.36 537.772 1208.96 536.752 1206.06 536.752ZM1225.05 559V535.78C1226.85 535.588 1228.74 535.492 1230.73 535.492C1232.75 535.492 1234.45 536.032 1235.85 537.112C1237.24 538.168 1237.93 539.776 1237.93 541.936C1237.93 544.096 1236.99 545.872 1235.09 547.264C1233.19 548.632 1230.95 549.316 1228.36 549.316C1228.24 549.316 1228.11 549.316 1227.96 549.316V548.164C1228.06 548.164 1228.14 548.164 1228.21 548.164C1230.35 548.164 1232.21 547.6 1233.79 546.472C1235.38 545.344 1236.17 543.88 1236.17 542.08C1236.17 540.28 1235.61 538.972 1234.48 538.156C1233.37 537.34 1231.91 536.932 1230.09 536.932C1229.13 536.932 1228 536.98 1226.7 537.076V559H1225.05ZM1254.62 557.776H1253.65L1246.84 541.252C1246.56 540.604 1246.27 539.848 1245.98 538.984C1245.98 539.008 1245.96 539.14 1245.91 539.38C1245.88 539.62 1245.85 539.944 1245.8 540.352C1245.75 540.736 1245.7 541.06 1245.66 541.324L1242.96 559H1241.34L1245.15 535.492H1246.12L1253.4 552.736C1253.97 554.176 1254.26 554.932 1254.26 555.004C1254.43 554.5 1254.75 553.756 1255.23 552.772L1263.33 535.492H1264.3L1267.87 559H1266.14L1263.58 541.252C1263.42 540.076 1263.33 539.296 1263.33 538.912L1262.29 541.288L1254.62 557.776ZM1274.05 559V535.636H1284.96V537.076H1275.71V545.572H1284.06V546.976H1275.71V557.488H1285.32V559H1274.05ZM1291.95 559V535.492H1292.74L1308.08 553.132C1308.63 553.756 1309.13 554.38 1309.59 555.004C1310.07 555.604 1310.32 555.916 1310.34 555.94C1310.3 555.364 1310.27 554.236 1310.27 552.556V535.636H1311.93V559.144H1311.14L1295.51 541.216L1293.53 538.804C1293.58 539.284 1293.6 540.412 1293.6 542.188V559H1291.95ZM1324.74 537.112H1316.82V535.636H1334.28V537.112H1326.36V559H1324.74V537.112ZM754.472 589.9L751.124 598H749.432L759.224 574.492H760.196L770.06 598H768.224L764.84 589.9H754.472ZM759.62 577.156C759.26 578.236 758.936 579.136 758.648 579.856L755.048 588.496H764.264L760.7 579.892C760.148 578.548 759.788 577.636 759.62 577.156ZM774.8 598V574.492H775.592L790.928 592.132C791.48 592.756 791.984 593.38 792.44 594.004C792.92 594.604 793.172 594.916 793.196 594.94C793.148 594.364 793.124 593.236 793.124 591.556V574.636H794.78V598.144H793.988L778.364 580.216L776.384 577.804C776.432 578.284 776.456 579.412 776.456 581.188V598H774.8ZM810.906 596.776C813.978 596.776 816.438 595.948 818.286 594.292C820.158 592.636 821.094 590.14 821.094 586.804C821.094 583.468 820.038 580.816 817.926 578.848C815.838 576.88 813.258 575.896 810.186 575.896C808.002 575.896 806.322 575.944 805.146 576.04V596.524C806.586 596.692 808.506 596.776 810.906 596.776ZM810.186 574.42C813.786 574.42 816.786 575.536 819.186 577.768C821.61 579.976 822.822 582.988 822.822 586.804C822.822 590.62 821.706 593.488 819.474 595.408C817.266 597.328 814.41 598.288 810.906 598.288C808.482 598.288 805.986 598.168 803.418 597.928V574.636C805.338 574.492 807.594 574.42 810.186 574.42ZM848.944 592.312L855.676 575.104H856.72L862.588 592.42L863.452 595.336C863.524 594.88 863.824 593.92 864.352 592.456L870.328 574.636H872.056L863.92 598.144H862.948C858.94 586.648 856.864 580.672 856.72 580.216C856.504 579.568 856.288 578.932 856.072 578.308C855.952 578.716 855.628 579.568 855.1 580.864L848.296 598.144H847.324L839.116 574.636H840.952L846.892 592.168C847.228 593.128 847.54 594.196 847.828 595.372C847.948 594.892 848.32 593.872 848.944 592.312ZM876.824 598V574.636H878.48V598H876.824ZM887.125 598V574.636H888.781V596.488H899.509V598H887.125ZM904.422 598V574.636H906.078V596.488H916.806V598H904.422ZM934.655 574.744C936.359 574.6 938.111 574.528 939.911 574.528C941.711 574.528 943.247 574.96 944.519 575.824C945.815 576.688 946.463 577.948 946.463 579.604C946.463 580.852 946.127 582.004 945.455 583.06C944.783 584.116 943.967 584.92 943.007 585.472C944.567 585.928 945.863 586.744 946.895 587.92C947.927 589.096 948.443 590.428 948.443 591.916C948.443 593.98 947.783 595.54 946.463 596.596C945.167 597.652 943.331 598.18 940.955 598.18C938.579 598.18 936.479 598.096 934.655 597.928V574.744ZM937.931 586.192L936.311 586.228V596.56C937.343 596.656 939.011 596.704 941.315 596.704C942.875 596.704 944.159 596.272 945.167 595.408C946.199 594.52 946.715 593.416 946.715 592.096C946.715 590.752 946.199 589.588 945.167 588.604C944.159 587.596 942.839 586.888 941.207 586.48C940.367 586.288 939.275 586.192 937.931 586.192ZM944.843 579.568C944.843 578.392 944.351 577.492 943.367 576.868C942.383 576.22 941.207 575.896 939.839 575.896C938.471 575.896 937.295 575.932 936.311 576.004V584.824C938.399 584.824 940.067 584.884 941.315 585.004C942.251 584.5 943.067 583.768 943.763 582.808C944.483 581.824 944.843 580.744 944.843 579.568ZM955.293 598V574.636H966.201V576.076H956.949V584.572H965.301V585.976H956.949V596.488H966.561V598H955.293ZM987.312 589.9L983.964 598H982.272L992.064 574.492H993.036L1002.9 598H1001.06L997.68 589.9H987.312ZM992.46 577.156C992.1 578.236 991.776 579.136 991.488 579.856L987.888 588.496H997.104L993.54 579.892C992.988 578.548 992.628 577.636 992.46 577.156ZM1013.48 593.104L1021.29 574.636H1023.02L1012.98 598.144H1012L1001.96 574.636H1003.76L1012.58 595.408C1012.7 595.048 1013 594.28 1013.48 593.104ZM1027.14 589.9L1023.8 598H1022.1L1031.9 574.492H1032.87L1042.73 598H1040.9L1037.51 589.9H1027.14ZM1032.29 577.156C1031.93 578.236 1031.61 579.136 1031.32 579.856L1027.72 588.496H1036.94L1033.37 579.892C1032.82 578.548 1032.46 577.636 1032.29 577.156ZM1047.47 598V574.636H1049.13V598H1047.47ZM1057.77 598V574.636H1059.43V596.488H1070.16V598H1057.77ZM1076.22 589.9L1072.87 598H1071.18L1080.97 574.492H1081.95L1091.81 598H1089.97L1086.59 589.9H1076.22ZM1081.37 577.156C1081.01 578.236 1080.69 579.136 1080.4 579.856L1076.8 588.496H1086.01L1082.45 579.892C1081.9 578.548 1081.54 577.636 1081.37 577.156ZM1096.51 574.744C1098.22 574.6 1099.97 574.528 1101.77 574.528C1103.57 574.528 1105.11 574.96 1106.38 575.824C1107.67 576.688 1108.32 577.948 1108.32 579.604C1108.32 580.852 1107.99 582.004 1107.31 583.06C1106.64 584.116 1105.83 584.92 1104.87 585.472C1106.43 585.928 1107.72 586.744 1108.75 587.92C1109.79 589.096 1110.3 590.428 1110.3 591.916C1110.3 593.98 1109.64 595.54 1108.32 596.596C1107.03 597.652 1105.19 598.18 1102.81 598.18C1100.44 598.18 1098.34 598.096 1096.51 597.928V574.744ZM1099.79 586.192L1098.17 586.228V596.56C1099.2 596.656 1100.87 596.704 1103.17 596.704C1104.73 596.704 1106.02 596.272 1107.03 595.408C1108.06 594.52 1108.57 593.416 1108.57 592.096C1108.57 590.752 1108.06 589.588 1107.03 588.604C1106.02 587.596 1104.7 586.888 1103.07 586.48C1102.23 586.288 1101.13 586.192 1099.79 586.192ZM1106.7 579.568C1106.7 578.392 1106.21 577.492 1105.23 576.868C1104.24 576.22 1103.07 575.896 1101.7 575.896C1100.33 575.896 1099.15 575.932 1098.17 576.004V584.824C1100.26 584.824 1101.93 584.884 1103.17 585.004C1104.11 584.5 1104.93 583.768 1105.62 582.808C1106.34 581.824 1106.7 580.744 1106.7 579.568ZM1117.15 598V574.636H1118.81V596.488H1129.54V598H1117.15ZM1134.45 598V574.636H1145.36V576.076H1136.1V584.572H1144.46V585.976H1136.1V596.488H1145.72V598H1134.45ZM1170.03 575.644C1168.74 575.644 1167.68 575.956 1166.86 576.58C1166.05 577.204 1165.64 578.08 1165.64 579.208C1165.64 580.504 1166.18 581.668 1167.26 582.7C1168.03 583.444 1169.01 584.236 1170.21 585.076C1171.44 585.892 1172.28 586.48 1172.73 586.84C1173.19 587.2 1173.74 587.692 1174.39 588.316C1175.56 589.492 1176.15 590.848 1176.15 592.384C1176.15 594.376 1175.48 595.888 1174.14 596.92C1172.82 597.928 1170.96 598.432 1168.56 598.432C1166.18 598.432 1164.19 597.808 1162.58 596.56L1163.44 595.3C1165.08 596.404 1166.8 596.956 1168.63 596.956C1170.45 596.956 1171.87 596.572 1172.88 595.804C1173.91 595.036 1174.42 593.956 1174.42 592.564C1174.42 591.364 1173.91 590.26 1172.88 589.252C1172.16 588.532 1171.18 587.752 1169.96 586.912C1168.76 586.072 1167.92 585.472 1167.44 585.112C1166.96 584.728 1166.4 584.224 1165.75 583.6C1164.52 582.376 1163.91 580.96 1163.91 579.352C1163.91 577.744 1164.48 576.484 1165.6 575.572C1166.76 574.66 1168.34 574.204 1170.36 574.204C1172.37 574.204 1174.18 574.6 1175.79 575.392L1175.18 576.724C1173.69 576.004 1171.98 575.644 1170.03 575.644ZM1200.68 598V586.192H1184.44V598H1182.79V574.636H1184.44V584.716H1200.68V574.636H1202.34V598H1200.68ZM1221.32 598.36C1217.98 598.36 1215.18 597.196 1212.93 594.868C1210.67 592.54 1209.54 589.696 1209.54 586.336C1209.54 582.952 1210.67 580.096 1212.93 577.768C1215.18 575.44 1217.98 574.276 1221.32 574.276C1224.65 574.276 1227.45 575.44 1229.7 577.768C1231.96 580.096 1233.09 582.952 1233.09 586.336C1233.09 589.696 1231.96 592.54 1229.7 594.868C1227.45 597.196 1224.65 598.36 1221.32 598.36ZM1221.32 575.752C1218.44 575.752 1216.04 576.772 1214.12 578.812C1212.22 580.852 1211.27 583.36 1211.27 586.336C1211.27 589.288 1212.22 591.784 1214.12 593.824C1216.04 595.84 1218.44 596.848 1221.32 596.848C1224.22 596.848 1226.62 595.84 1228.52 593.824C1230.41 591.784 1231.36 589.288 1231.36 586.336C1231.36 583.36 1230.41 580.852 1228.52 578.812C1226.62 576.772 1224.22 575.752 1221.32 575.752ZM1240.3 598V574.744C1242.37 574.576 1244.12 574.492 1245.56 574.492C1247.77 574.492 1249.59 575.068 1251.03 576.22C1252.47 577.348 1253.19 578.968 1253.19 581.08C1253.19 582.496 1252.78 583.804 1251.97 585.004C1251.15 586.204 1250.23 587.176 1249.2 587.92C1252.05 591.712 1253.82 593.98 1254.49 594.724C1255.86 596.14 1257.34 596.944 1258.95 597.136L1258.92 598.252C1257.57 598.228 1256.48 598.036 1255.64 597.676C1254.8 597.292 1253.96 596.656 1253.12 595.768C1252.3 594.88 1250.49 592.492 1247.68 588.604C1245.74 588.604 1243.83 588.544 1241.96 588.424V598H1240.3ZM1246.78 587.236C1247.72 587.236 1248.73 586.612 1249.81 585.364C1250.89 584.116 1251.43 582.664 1251.43 581.008C1251.43 579.352 1250.86 578.092 1249.74 577.228C1248.61 576.364 1247.14 575.932 1245.34 575.932C1244.38 575.932 1243.26 575.98 1241.96 576.076V587.056C1243.69 587.176 1245.3 587.236 1246.78 587.236ZM1264.7 576.112H1256.78V574.636H1274.24V576.112H1266.32V598H1264.7V576.112ZM1279.12 598V574.636H1280.77V596.488H1291.5V598H1279.12ZM1300.75 598H1299.13V589.648L1290.31 574.636H1292.29L1299.09 586.228C1299.62 587.284 1299.92 587.848 1299.99 587.92C1300.14 587.608 1300.44 587.056 1300.89 586.264L1307.7 574.636H1309.57L1300.75 589.72V598ZM1308.26 598V596.092H1310.16V598H1308.26ZM760.988 637H759.26V627.784L749.576 611.26H751.664L759.152 624.292C759.584 625.06 759.944 625.732 760.232 626.308C760.328 625.996 760.664 625.348 761.24 624.364L768.728 611.26H770.708L760.988 627.856V637ZM785.062 637.36C781.726 637.36 778.93 636.196 776.674 633.868C774.418 631.54 773.29 628.696 773.29 625.336C773.29 621.952 774.418 619.096 776.674 616.768C778.93 614.44 781.726 613.276 785.062 613.276C788.398 613.276 791.194 614.44 793.45 616.768C795.706 619.096 796.834 621.952 796.834 625.336C796.834 628.696 795.706 631.54 793.45 633.868C791.194 636.196 788.398 637.36 785.062 637.36ZM785.062 614.752C782.182 614.752 779.782 615.772 777.862 617.812C775.966 619.852 775.018 622.36 775.018 625.336C775.018 628.288 775.966 630.784 777.862 632.824C779.782 634.84 782.182 635.848 785.062 635.848C787.966 635.848 790.366 634.84 792.262 632.824C794.158 630.784 795.106 628.288 795.106 625.336C795.106 622.36 794.158 619.852 792.262 617.812C790.366 615.772 787.966 614.752 785.062 614.752ZM820.682 634.588C819.098 636.436 816.686 637.36 813.446 637.36C810.206 637.36 807.794 636.436 806.21 634.588C804.626 632.74 803.834 630.184 803.834 626.92V613.636H805.49V626.92C805.49 632.896 808.142 635.884 813.446 635.884C818.75 635.884 821.402 632.896 821.402 626.92V613.636H823.058V626.92C823.058 630.184 822.266 632.74 820.682 634.588ZM831.472 637V613.744C833.536 613.576 835.288 613.492 836.728 613.492C838.936 613.492 840.76 614.068 842.2 615.22C843.64 616.348 844.36 617.968 844.36 620.08C844.36 621.496 843.952 622.804 843.136 624.004C842.32 625.204 841.396 626.176 840.364 626.92C843.22 630.712 844.984 632.98 845.656 633.724C847.024 635.14 848.512 635.944 850.12 636.136L850.084 637.252C848.74 637.228 847.648 637.036 846.808 636.676C845.968 636.292 845.128 635.656 844.288 634.768C843.472 633.88 841.66 631.492 838.852 627.604C836.908 627.604 835 627.544 833.128 627.424V637H831.472ZM837.952 626.236C838.888 626.236 839.896 625.612 840.976 624.364C842.056 623.116 842.596 621.664 842.596 620.008C842.596 618.352 842.032 617.092 840.904 616.228C839.776 615.364 838.312 614.932 836.512 614.932C835.552 614.932 834.424 614.98 833.128 615.076V626.056C834.856 626.176 836.464 626.236 837.952 626.236ZM866.347 637V613.78C868.147 613.588 870.043 613.492 872.035 613.492C874.051 613.492 875.755 614.032 877.147 615.112C878.539 616.168 879.235 617.776 879.235 619.936C879.235 622.096 878.287 623.872 876.391 625.264C874.495 626.632 872.251 627.316 869.659 627.316C869.539 627.316 869.407 627.316 869.263 627.316V626.164C869.359 626.164 869.443 626.164 869.515 626.164C871.651 626.164 873.511 625.6 875.095 624.472C876.679 623.344 877.471 621.88 877.471 620.08C877.471 618.28 876.907 616.972 875.779 616.156C874.675 615.34 873.211 614.932 871.387 614.932C870.427 614.932 869.299 614.98 868.003 615.076V637H866.347ZM885.077 628.9L881.729 637H880.037L889.829 613.492H890.801L900.665 637H898.829L895.445 628.9H885.077ZM890.225 616.156C889.865 617.236 889.541 618.136 889.253 618.856L885.653 627.496H894.869L891.305 618.892C890.753 617.548 890.393 616.636 890.225 616.156ZM907.367 615.112H899.447V613.636H916.907V615.112H908.987V637H907.367V615.112ZM921.789 637V613.636H923.445V637H921.789ZM932.09 637V613.636H942.998V615.076H933.746V623.572H942.098V624.976H933.746V635.488H943.358V637H932.09ZM949.984 637V613.492H950.776L966.112 631.132C966.664 631.756 967.168 632.38 967.624 633.004C968.104 633.604 968.356 633.916 968.38 633.94C968.332 633.364 968.308 632.236 968.308 630.556V613.636H969.964V637.144H969.172L953.548 619.216L951.568 616.804C951.616 617.284 951.64 618.412 951.64 620.188V637H949.984ZM996.781 635.848C994.981 636.856 992.473 637.36 989.257 637.36C986.065 637.36 983.245 636.208 980.797 633.904C978.373 631.6 977.161 628.744 977.161 625.336C977.161 621.904 978.217 619.036 980.329 616.732C982.465 614.428 985.213 613.276 988.573 613.276C991.285 613.276 993.937 613.696 996.529 614.536L996.097 615.904C993.601 615.136 991.021 614.752 988.357 614.752C985.693 614.752 983.449 615.772 981.625 617.812C979.825 619.828 978.925 622.312 978.925 625.264C978.925 628.192 979.969 630.688 982.057 632.752C984.169 634.816 986.605 635.848 989.365 635.848C992.125 635.848 994.417 635.464 996.241 634.696L996.781 635.848ZM1002.68 637V613.636H1013.59V615.076H1004.34V623.572H1012.69V624.976H1004.34V635.488H1013.95V637H1002.68ZM1033.55 637V613.636H1035.21V637H1033.55ZM1048.57 614.644C1047.27 614.644 1046.22 614.956 1045.4 615.58C1044.58 616.204 1044.18 617.08 1044.18 618.208C1044.18 619.504 1044.72 620.668 1045.8 621.7C1046.56 622.444 1047.55 623.236 1048.75 624.076C1049.97 624.892 1050.81 625.48 1051.27 625.84C1051.72 626.2 1052.28 626.692 1052.92 627.316C1054.1 628.492 1054.69 629.848 1054.69 631.384C1054.69 633.376 1054.02 634.888 1052.67 635.92C1051.35 636.928 1049.49 637.432 1047.09 637.432C1044.72 637.432 1042.72 636.808 1041.12 635.56L1041.98 634.3C1043.61 635.404 1045.34 635.956 1047.16 635.956C1048.99 635.956 1050.4 635.572 1051.41 634.804C1052.44 634.036 1052.96 632.956 1052.96 631.564C1052.96 630.364 1052.44 629.26 1051.41 628.252C1050.69 627.532 1049.72 626.752 1048.5 625.912C1047.3 625.072 1046.46 624.472 1045.98 624.112C1045.5 623.728 1044.93 623.224 1044.28 622.6C1043.06 621.376 1042.45 619.96 1042.45 618.352C1042.45 616.744 1043.01 615.484 1044.14 614.572C1045.29 613.66 1046.88 613.204 1048.89 613.204C1050.91 613.204 1052.72 613.6 1054.33 614.392L1053.72 615.724C1052.23 615.004 1050.51 614.644 1048.57 614.644ZM1084.05 614.752C1081.39 614.752 1079.14 615.772 1077.32 617.812C1075.52 619.828 1074.62 622.312 1074.62 625.264C1074.62 628.216 1075.64 630.724 1077.68 632.788C1079.72 634.828 1082.12 635.848 1084.88 635.848C1087.66 635.848 1089.82 635.524 1091.36 634.876V625.264H1093.02V635.632C1091.14 636.784 1088.49 637.36 1085.06 637.36C1081.63 637.36 1078.74 636.196 1076.38 633.868C1074.03 631.54 1072.86 628.684 1072.86 625.3C1072.86 621.892 1073.91 619.036 1076.02 616.732C1078.16 614.428 1080.91 613.276 1084.27 613.276C1086.98 613.276 1089.63 613.696 1092.22 614.536L1091.79 615.904C1089.3 615.136 1086.72 614.752 1084.05 614.752ZM1100.87 637V613.744C1102.94 613.576 1104.69 613.492 1106.13 613.492C1108.34 613.492 1110.16 614.068 1111.6 615.22C1113.04 616.348 1113.76 617.968 1113.76 620.08C1113.76 621.496 1113.35 622.804 1112.54 624.004C1111.72 625.204 1110.8 626.176 1109.77 626.92C1112.62 630.712 1114.39 632.98 1115.06 633.724C1116.43 635.14 1117.91 635.944 1119.52 636.136L1119.49 637.252C1118.14 637.228 1117.05 637.036 1116.21 636.676C1115.37 636.292 1114.53 635.656 1113.69 634.768C1112.87 633.88 1111.06 631.492 1108.25 627.604C1106.31 627.604 1104.4 627.544 1102.53 627.424V637H1100.87ZM1107.35 626.236C1108.29 626.236 1109.3 625.612 1110.38 624.364C1111.46 623.116 1112 621.664 1112 620.008C1112 618.352 1111.43 617.092 1110.31 616.228C1109.18 615.364 1107.71 614.932 1105.91 614.932C1104.95 614.932 1103.83 614.98 1102.53 615.076V626.056C1104.26 626.176 1105.87 626.236 1107.35 626.236ZM1122.78 637V613.636H1133.69V615.076H1124.43V623.572H1132.79V624.976H1124.43V635.488H1134.05V637H1122.78ZM1141.82 628.9L1138.48 637H1136.78L1146.58 613.492H1147.55L1157.41 637H1155.58L1152.19 628.9H1141.82ZM1146.97 616.156C1146.61 617.236 1146.29 618.136 1146 618.856L1142.4 627.496H1151.62L1148.05 618.892C1147.5 617.548 1147.14 616.636 1146.97 616.156ZM1164.11 615.112H1156.19V613.636H1173.65V615.112H1165.73V637H1164.11V615.112ZM1178.53 637V613.636H1180.19V635.488H1190.92V637H1178.53ZM1200.17 637H1198.55V628.648L1189.73 613.636H1191.71L1198.51 625.228C1199.04 626.284 1199.34 626.848 1199.41 626.92C1199.56 626.608 1199.86 626.056 1200.31 625.264L1207.12 613.636H1208.99L1200.17 628.72V637ZM754.472 667.9L751.124 676H749.432L759.224 652.492H760.196L770.06 676H768.224L764.84 667.9H754.472ZM759.62 655.156C759.26 656.236 758.936 657.136 758.648 657.856L755.048 666.496H764.264L760.7 657.892C760.148 656.548 759.788 655.636 759.62 655.156ZM774.8 676V652.78C776.6 652.588 778.496 652.492 780.488 652.492C782.504 652.492 784.208 653.032 785.6 654.112C786.992 655.168 787.688 656.776 787.688 658.936C787.688 661.096 786.74 662.872 784.844 664.264C782.948 665.632 780.704 666.316 778.112 666.316C777.992 666.316 777.86 666.316 777.716 666.316V665.164C777.812 665.164 777.896 665.164 777.968 665.164C780.104 665.164 781.964 664.6 783.548 663.472C785.132 662.344 785.924 660.88 785.924 659.08C785.924 657.28 785.36 655.972 784.232 655.156C783.128 654.34 781.664 653.932 779.84 653.932C778.88 653.932 777.752 653.98 776.456 654.076V676H774.8ZM793.82 676V652.78C795.62 652.588 797.516 652.492 799.508 652.492C801.524 652.492 803.228 653.032 804.62 654.112C806.012 655.168 806.708 656.776 806.708 658.936C806.708 661.096 805.76 662.872 803.864 664.264C801.968 665.632 799.724 666.316 797.132 666.316C797.012 666.316 796.88 666.316 796.736 666.316V665.164C796.832 665.164 796.916 665.164 796.988 665.164C799.124 665.164 800.984 664.6 802.568 663.472C804.152 662.344 804.944 660.88 804.944 659.08C804.944 657.28 804.38 655.972 803.252 655.156C802.148 654.34 800.684 653.932 798.86 653.932C797.9 653.932 796.772 653.98 795.476 654.076V676H793.82ZM812.84 676V652.744C814.904 652.576 816.656 652.492 818.096 652.492C820.304 652.492 822.128 653.068 823.568 654.22C825.008 655.348 825.728 656.968 825.728 659.08C825.728 660.496 825.32 661.804 824.504 663.004C823.688 664.204 822.764 665.176 821.732 665.92C824.588 669.712 826.352 671.98 827.024 672.724C828.392 674.14 829.88 674.944 831.488 675.136L831.452 676.252C830.108 676.228 829.016 676.036 828.176 675.676C827.336 675.292 826.496 674.656 825.656 673.768C824.84 672.88 823.028 670.492 820.22 666.604C818.276 666.604 816.368 666.544 814.496 666.424V676H812.84ZM819.32 665.236C820.256 665.236 821.264 664.612 822.344 663.364C823.424 662.116 823.964 660.664 823.964 659.008C823.964 657.352 823.4 656.092 822.272 655.228C821.144 654.364 819.68 653.932 817.88 653.932C816.92 653.932 815.792 653.98 814.496 654.076V665.056C816.224 665.176 817.832 665.236 819.32 665.236ZM834.742 676V652.636H845.65V654.076H836.398V662.572H844.75V663.976H836.398V674.488H846.01V676H834.742ZM870.816 674.848C869.016 675.856 866.508 676.36 863.292 676.36C860.1 676.36 857.28 675.208 854.832 672.904C852.408 670.6 851.196 667.744 851.196 664.336C851.196 660.904 852.252 658.036 854.364 655.732C856.5 653.428 859.248 652.276 862.608 652.276C865.32 652.276 867.972 652.696 870.564 653.536L870.132 654.904C867.636 654.136 865.056 653.752 862.392 653.752C859.728 653.752 857.484 654.772 855.66 656.812C853.86 658.828 852.96 661.312 852.96 664.264C852.96 667.192 854.004 669.688 856.092 671.752C858.204 673.816 860.64 674.848 863.4 674.848C866.16 674.848 868.452 674.464 870.276 673.696L870.816 674.848ZM876.718 676V652.636H878.374V676H876.718ZM888.171 667.9L884.823 676H883.131L892.923 652.492H893.895L903.759 676H901.923L898.539 667.9H888.171ZM893.319 655.156C892.959 656.236 892.635 657.136 892.347 657.856L888.747 666.496H897.963L894.399 657.892C893.847 656.548 893.487 655.636 893.319 655.156ZM910.461 654.112H902.541V652.636H920.001V654.112H912.081V676H910.461V654.112ZM924.883 676V652.636H935.791V654.076H926.539V662.572H934.891V663.976H926.539V674.488H936.151V676H924.883ZM950.265 674.776C953.337 674.776 955.797 673.948 957.645 672.292C959.517 670.636 960.453 668.14 960.453 664.804C960.453 661.468 959.397 658.816 957.285 656.848C955.197 654.88 952.617 653.896 949.545 653.896C947.361 653.896 945.681 653.944 944.505 654.04V674.524C945.945 674.692 947.865 674.776 950.265 674.776ZM949.545 652.42C953.145 652.42 956.145 653.536 958.545 655.768C960.969 657.976 962.181 660.988 962.181 664.804C962.181 668.62 961.065 671.488 958.833 673.408C956.625 675.328 953.769 676.288 950.265 676.288C947.841 676.288 945.345 676.168 942.777 675.928V652.636C944.697 652.492 946.953 652.42 949.545 652.42ZM964.85 676V674.092H966.758V676H964.85Z" fill="white"/>
</g>
</g>
<defs>
<filter id="filter0_d" x="117" y="423" width="615" height="398.176" filterUnits="userSpaceOnUse" color-interpolation-filters="sRGB">
<feFlood flood-opacity="0" result="BackgroundImageFix"/>
<feColorMatrix in="SourceAlpha" type="matrix" values="0 0 0 0 0 0 0 0 0 0 0 0 0 0 0 0 0 0 127 0"/>
<feOffset dy="4"/>
<feGaussianBlur stdDeviation="6"/>
<feColorMatrix type="matrix" values="0 0 0 0 0 0 0 0 0 0 0 0 0 0 0 0 0 0 0.25 0"/>
<feBlend mode="normal" in2="BackgroundImageFix" result="effect1_dropShadow"/>
<feBlend mode="normal" in="SourceGraphic" in2="effect1_dropShadow" result="shape"/>
</filter>
<filter id="filter1_d" x="745.432" y="533.26" width="592.85" height="151.1" filterUnits="userSpaceOnUse" color-interpolation-filters="sRGB">
<feFlood flood-opacity="0" result="BackgroundImageFix"/>
<feColorMatrix in="SourceAlpha" type="matrix" values="0 0 0 0 0 0 0 0 0 0 0 0 0 0 0 0 0 0 127 0"/>
<feOffset dy="4"/>
<feGaussianBlur stdDeviation="2"/>
<feColorMatrix type="matrix" values="0 0 0 0 0 0 0 0 0 0 0 0 0 0 0 0 0 0 0.25 0"/>
<feBlend mode="normal" in2="BackgroundImageFix" result="effect1_dropShadow"/>
<feBlend mode="normal" in="SourceGraphic" in2="effect1_dropShadow" result="shape"/>
</filter>
<clipPath id="clip0">
<rect width="1440" height="1024" fill="white"/>
</clipPath>
</defs>
</svg>
