<svg width="1440" height="564" viewBox="0 0 1440 564" fill="none" xmlns="http://www.w3.org/2000/svg">
<path opacity="0.57" d="M197.19 363.66L177.452 351.212C179.444 339.471 179.444 327.427 177.452 315.687L197.19 303.238C199.46 301.821 200.48 298.886 199.738 296.154C194.595 278.139 185.838 261.844 174.394 248.282C172.633 246.207 169.761 245.701 167.537 247.118L147.799 259.567C139.505 251.773 129.96 245.752 119.628 241.804V216.957C119.628 214.124 117.821 211.644 115.273 211.037C98.2685 206.887 80.8472 207.09 64.6769 211.037C62.1285 211.644 60.3215 214.124 60.3215 216.957V241.855C50.0356 245.853 40.4909 251.875 32.1509 259.617L12.4593 247.168C10.189 245.752 7.36263 246.207 5.60196 248.332C-5.84235 261.844 -14.5993 278.139 -19.7423 296.204C-20.53 298.937 -19.4643 301.872 -17.194 303.289L2.54397 315.738C0.551636 327.478 0.551636 339.522 2.54397 351.262L-17.194 363.711C-19.4643 365.128 -20.4837 368.063 -19.7423 370.796C-14.5993 388.811 -5.84235 405.106 5.60196 418.668C7.36263 420.742 10.2353 421.248 12.4593 419.832L32.1973 407.383C40.4909 415.176 50.0356 421.198 60.3679 425.145V450.042C60.3679 452.876 62.1749 455.356 64.7232 455.963C81.7275 460.113 99.1488 459.91 115.319 455.963C117.867 455.356 119.674 452.876 119.674 450.042V425.145C129.96 421.147 139.505 415.125 147.845 407.383L167.583 419.832C169.853 421.248 172.68 420.793 174.44 418.668C185.885 405.156 194.642 388.861 199.785 370.796C200.48 368.012 199.46 365.077 197.19 363.66ZM89.9748 373.933C69.5419 373.933 52.9082 355.766 52.9082 333.449C52.9082 311.133 69.5419 292.966 89.9748 292.966C110.408 292.966 127.041 311.133 127.041 333.449C127.041 355.766 110.408 373.933 89.9748 373.933Z" fill="#275077"/>
<path opacity="0.57" d="M1184.8 468.552L1169.37 458.831C1170.93 449.663 1170.93 440.258 1169.37 431.09L1184.8 421.369C1186.58 420.263 1187.38 417.971 1186.8 415.837C1182.77 401.77 1175.93 389.045 1166.98 378.455C1165.6 376.835 1163.36 376.44 1161.62 377.546L1146.19 387.267C1139.7 381.182 1132.24 376.479 1124.16 373.397V353.995C1124.16 351.782 1122.75 349.846 1120.76 349.371C1107.46 346.131 1093.84 346.289 1081.2 349.371C1079.21 349.846 1077.8 351.782 1077.8 353.995V373.437C1069.76 376.558 1062.29 381.261 1055.77 387.307L1040.38 377.586C1038.6 376.479 1036.39 376.835 1035.02 378.495C1026.07 389.045 1019.22 401.77 1015.2 415.877C1014.59 418.011 1015.42 420.303 1017.19 421.409L1032.63 431.13C1031.07 440.298 1031.07 449.702 1032.63 458.87L1017.19 468.591C1015.42 469.697 1014.62 471.989 1015.2 474.123C1019.22 488.191 1026.07 500.915 1035.02 511.505C1036.39 513.126 1038.64 513.521 1040.38 512.414L1055.81 502.693C1062.29 508.779 1069.76 513.481 1077.83 516.563V536.005C1077.83 538.218 1079.25 540.154 1081.24 540.629C1094.53 543.869 1108.15 543.711 1120.79 540.629C1122.79 540.154 1124.2 538.218 1124.2 536.005V516.563C1132.24 513.442 1139.7 508.739 1146.22 502.693L1161.66 512.414C1163.43 513.521 1165.64 513.165 1167.02 511.505C1175.96 500.955 1182.81 488.23 1186.83 474.123C1187.38 471.95 1186.58 469.658 1184.8 468.552ZM1100.98 476.573C1085.01 476.573 1072 462.387 1072 444.96C1072 427.534 1085.01 413.348 1100.98 413.348C1116.96 413.348 1129.96 427.534 1129.96 444.96C1129.96 462.387 1116.96 476.573 1100.98 476.573Z" fill="#275077"/>
<path opacity="0.57" d="M776.803 364.552L761.372 354.831C762.929 345.663 762.929 336.258 761.372 327.09L776.803 317.369C778.578 316.263 779.375 313.971 778.795 311.837C774.775 297.77 767.928 285.045 758.981 274.455C757.604 272.835 755.358 272.44 753.62 273.546L738.188 283.267C731.704 277.182 724.242 272.479 716.164 269.397V249.995C716.164 247.782 714.751 245.846 712.759 245.371C699.464 242.131 685.844 242.289 673.202 245.371C671.21 245.846 669.797 247.782 669.797 249.995V269.437C661.755 272.558 654.293 277.261 647.773 283.307L632.377 273.586C630.602 272.479 628.393 272.835 627.016 274.495C618.069 285.045 611.222 297.77 607.201 311.877C606.586 314.011 607.419 316.303 609.194 317.409L624.625 327.13C623.068 336.298 623.068 345.702 624.625 354.87L609.194 364.591C607.419 365.697 606.622 367.989 607.201 370.123C611.222 384.191 618.069 396.915 627.016 407.505C628.393 409.126 630.638 409.521 632.377 408.414L647.809 398.693C654.293 404.779 661.755 409.481 669.833 412.563V432.005C669.833 434.218 671.246 436.154 673.238 436.629C686.532 439.869 700.153 439.711 712.795 436.629C714.787 436.154 716.2 434.218 716.2 432.005V412.563C724.242 409.442 731.704 404.739 738.224 398.693L753.656 408.414C755.431 409.521 757.64 409.165 759.017 407.505C767.964 396.955 774.811 384.23 778.832 370.123C779.375 367.95 778.578 365.658 776.803 364.552ZM692.98 372.573C677.005 372.573 664.001 358.387 664.001 340.96C664.001 323.534 677.005 309.348 692.98 309.348C708.955 309.348 721.96 323.534 721.96 340.96C721.96 358.387 708.955 372.573 692.98 372.573Z" fill="#275077"/>
<path opacity="0.57" d="M1020.88 191.21L1005.99 181.837C1007.49 172.996 1007.49 163.927 1005.99 155.087L1020.88 145.713C1022.59 144.646 1023.36 142.436 1022.8 140.379C1018.92 126.813 1012.31 114.544 1003.68 104.332C1002.35 102.769 1000.18 102.388 998.505 103.455L983.612 112.829C977.354 106.961 970.152 102.426 962.356 99.4543V80.7449C962.356 78.611 960.992 76.7439 959.069 76.2866C946.239 73.1621 933.094 73.3145 920.893 76.2866C918.97 76.7439 917.606 78.611 917.606 80.7449V99.4924C909.845 102.503 902.643 107.037 896.35 112.867L881.492 103.493C879.779 102.426 877.646 102.769 876.318 104.37C867.683 114.544 861.075 126.813 857.194 140.417C856.6 142.474 857.404 144.685 859.117 145.751L874.01 155.125C872.507 163.966 872.507 173.034 874.01 181.875L859.117 191.248C857.404 192.315 856.635 194.525 857.194 196.583C861.075 210.148 867.683 222.418 876.318 232.63C877.646 234.192 879.814 234.574 881.492 233.507L896.385 224.133C902.643 230.001 909.845 234.535 917.641 237.508V256.255C917.641 258.389 919.005 260.256 920.928 260.713C933.758 263.838 946.903 263.686 959.104 260.713C961.027 260.256 962.391 258.389 962.391 256.255V237.508C970.152 234.497 977.354 229.963 983.647 224.133L998.54 233.507C1000.25 234.574 1002.39 234.231 1003.71 232.63C1012.35 222.456 1018.96 210.187 1022.84 196.583C1023.36 194.487 1022.59 192.277 1020.88 191.21ZM939.981 198.946C924.563 198.946 912.013 185.266 912.013 168.462C912.013 151.658 924.563 137.978 939.981 137.978C955.399 137.978 967.949 151.658 967.949 168.462C967.949 185.266 955.399 198.946 939.981 198.946Z" fill="#275077"/>
<path opacity="0.57" d="M1497 229.203L1475.91 215.911C1478.04 203.376 1478.04 190.516 1475.91 177.981L1497 164.689C1499.42 163.176 1500.51 160.042 1499.72 157.124C1494.23 137.889 1484.87 120.491 1472.65 106.01C1470.77 103.795 1467.7 103.254 1465.32 104.767L1444.24 118.059C1435.38 109.738 1425.19 103.308 1414.15 99.0939V72.5642C1414.15 69.5384 1412.22 66.8908 1409.5 66.2424C1391.33 61.8118 1372.72 62.0279 1355.45 66.2424C1352.73 66.8908 1350.8 69.5384 1350.8 72.5642V99.1479C1339.81 103.416 1329.62 109.846 1320.71 118.113L1299.67 104.821C1297.25 103.308 1294.23 103.795 1292.35 106.064C1280.12 120.491 1270.77 137.889 1265.28 157.178C1264.43 160.096 1265.57 163.23 1268 164.743L1289.08 178.035C1286.95 190.57 1286.95 203.43 1289.08 215.965L1268 229.257C1265.57 230.77 1264.48 233.904 1265.28 236.822C1270.77 256.057 1280.12 273.455 1292.35 287.936C1294.23 290.151 1297.3 290.692 1299.67 289.179L1320.76 275.887C1329.62 284.208 1339.81 290.638 1350.85 294.852V321.436C1350.85 324.462 1352.78 327.109 1355.5 327.758C1373.66 332.188 1392.27 331.972 1409.55 327.758C1412.27 327.109 1414.2 324.462 1414.2 321.436V294.852C1425.19 290.584 1435.38 284.154 1444.29 275.887L1465.37 289.179C1467.8 290.692 1470.82 290.205 1472.7 287.936C1484.92 273.509 1494.28 256.111 1499.77 236.822C1500.51 233.85 1499.42 230.716 1497 229.203ZM1382.47 240.172C1360.65 240.172 1342.88 220.774 1342.88 196.946C1342.88 173.118 1360.65 153.72 1382.47 153.72C1404.3 153.72 1422.07 173.118 1422.07 196.946C1422.07 220.774 1404.3 240.172 1382.47 240.172Z" fill="#275077"/>
<path opacity="0.57" d="M521.998 166.203L500.915 152.911C503.043 140.376 503.043 127.516 500.915 114.981L521.998 101.689C524.424 100.176 525.512 97.0421 524.72 94.1243C519.227 74.8889 509.873 57.4906 497.648 43.01C495.767 40.7947 492.699 40.2544 490.323 41.7673L469.24 55.0592C460.38 46.7382 450.185 40.3084 439.148 36.0939V9.56418C439.148 6.53838 437.218 3.89081 434.496 3.24243C416.332 -1.1882 397.723 -0.972071 380.45 3.24243C377.728 3.89081 375.798 6.53838 375.798 9.56418V36.1479C364.811 40.4165 354.615 46.8463 345.707 55.1132L324.672 41.8213C322.247 40.3084 319.228 40.7947 317.348 43.0641C305.123 57.4906 295.769 74.8889 290.275 94.1784C289.434 97.0961 290.572 100.23 292.997 101.743L314.081 115.035C311.953 127.57 311.953 140.43 314.081 152.965L292.997 166.257C290.572 167.77 289.483 170.904 290.275 173.822C295.769 193.057 305.123 210.455 317.348 224.936C319.228 227.151 322.297 227.692 324.672 226.179L345.756 212.887C354.615 221.208 364.811 227.638 375.848 231.852V258.436C375.848 261.462 377.778 264.109 380.5 264.758C398.663 269.188 417.273 268.972 434.545 264.758C437.268 264.109 439.198 261.462 439.198 258.436V231.852C450.185 227.584 460.38 221.154 469.289 212.887L490.373 226.179C492.798 227.692 495.817 227.205 497.698 224.936C509.922 210.509 519.276 193.111 524.77 173.822C525.512 170.85 524.424 167.716 521.998 166.203ZM407.473 177.172C385.647 177.172 367.879 157.774 367.879 133.946C367.879 110.118 385.647 90.7203 407.473 90.7203C429.299 90.7203 447.067 110.118 447.067 133.946C447.067 157.774 429.299 177.172 407.473 177.172Z" fill="#275077"/>
<path opacity="0.57" d="M456.34 506.644L444.676 499.155C445.853 492.092 445.853 484.847 444.676 477.784L456.34 470.295C457.681 469.442 458.283 467.677 457.845 466.033C454.806 455.195 449.632 445.392 442.869 437.233C441.829 435.985 440.131 435.681 438.817 436.533L427.154 444.022C422.253 439.334 416.613 435.711 410.508 433.337V418.389C410.508 416.684 409.44 415.192 407.934 414.827C397.886 412.331 387.592 412.452 378.036 414.827C376.53 415.192 375.463 416.684 375.463 418.389V433.367C369.385 435.772 363.745 439.395 358.816 444.053L347.18 436.564C345.839 435.711 344.169 435.985 343.128 437.264C336.366 445.392 331.191 455.195 328.152 466.063C327.687 467.707 328.317 469.473 329.658 470.325L341.321 477.814C340.144 484.877 340.144 492.123 341.321 499.186L329.658 506.675C328.317 507.527 327.714 509.293 328.152 510.937C331.191 521.775 336.366 531.577 343.128 539.736C344.169 540.984 345.866 541.289 347.18 540.437L358.844 532.947C363.745 537.636 369.385 541.258 375.49 543.633V558.611C375.49 560.316 376.558 561.808 378.064 562.173C388.112 564.669 398.406 564.548 407.961 562.173C409.467 561.808 410.535 560.316 410.535 558.611V543.633C416.613 541.228 422.253 537.605 427.181 532.947L438.845 540.437C440.186 541.289 441.856 541.015 442.897 539.736C449.659 531.608 454.834 521.805 457.873 510.937C458.283 509.262 457.681 507.497 456.34 506.644ZM392.985 512.824C380.911 512.824 371.082 501.895 371.082 488.47C371.082 475.044 380.911 464.115 392.985 464.115C405.059 464.115 414.888 475.044 414.888 488.47C414.888 501.895 405.059 512.824 392.985 512.824Z" fill="#275077"/>
</svg>
