<svg width="170" height="137" viewBox="0 0 170 137" fill="none" xmlns="http://www.w3.org/2000/svg">
<path d="M48.2651 96.9147C48.2651 107.859 45.3851 117.267 39.6251 125.139C34.0571 132.819 27.3371 136.659 19.4651 136.659V67.2507C19.4651 56.3067 22.2491 46.9947 27.8171 39.3147C33.5771 31.4427 40.3931 27.5067 48.2651 27.5067V96.9147Z" fill="white"/>
<path d="M86.6149 81.6177C86.6149 83.9217 85.8043 85.8844 84.1829 87.5057C82.5616 89.127 80.5989 89.9377 78.2949 89.9377H68.3749C66.0709 89.9377 64.1083 89.127 62.4869 87.5057C60.8656 85.8844 60.0549 83.9217 60.0549 81.6177V74.0017C60.0549 71.6977 60.8656 69.735 62.4869 68.1137C64.1083 66.4924 66.0709 65.6817 68.3749 65.6817H79.1269C79.1269 67.431 78.2736 68.903 76.5669 70.0977C74.8603 71.2924 72.7696 71.9324 70.2949 72.0177L68.3749 72.0817C67.0949 72.1244 66.4549 72.7644 66.4549 74.0017V81.6177C66.4549 82.8977 67.0949 83.5377 68.3749 83.5377H78.2949C79.5749 83.5377 80.2149 82.8977 80.2149 81.6177L80.2789 65.5537C80.2789 63.1217 80.8976 61.0524 82.1349 59.3457C83.3723 57.5964 84.8656 56.7217 86.6149 56.7217V81.6177ZM116.927 89.9377H98.6874C96.3834 89.9377 94.4208 89.127 92.7994 87.5057C91.1781 85.8844 90.3674 83.9217 90.3674 81.6177V74.0017C90.3674 71.6977 91.1781 69.735 92.7994 68.1137C94.4208 66.4924 96.3834 65.6817 98.6874 65.6817H108.607C110.911 65.6817 112.874 66.4924 114.495 68.1137C116.117 69.735 116.927 71.6977 116.927 74.0017V74.0657C116.927 76.3697 116.117 78.3324 114.495 79.9537C112.874 81.575 110.911 82.3857 108.607 82.3857H99.3914C99.3914 80.6364 100.245 79.143 101.951 77.9057C103.701 76.6684 105.791 76.0497 108.223 76.0497L108.607 75.9857C109.887 75.7724 110.527 75.1324 110.527 74.0657V74.0017C110.527 72.7217 109.887 72.0817 108.607 72.0817H98.6874C97.4074 72.0817 96.7674 72.7217 96.7674 74.0017V81.6177C96.7674 82.8977 97.4074 83.5377 98.6874 83.5377L108.095 83.6017C110.527 83.6017 112.597 84.2204 114.303 85.4577C116.053 86.695 116.927 88.1884 116.927 89.9377ZM147.24 81.6177C147.24 83.9217 146.429 85.8844 144.808 87.5057C143.187 89.127 141.224 89.9377 138.92 89.9377H129C126.696 89.9377 124.733 89.127 123.112 87.5057C121.491 85.8844 120.68 83.9217 120.68 81.6177V65.6817C122.429 65.6817 123.901 66.5564 125.096 68.3057C126.333 70.0124 126.973 72.0817 127.016 74.5137L127.08 81.6177C127.08 82.8977 127.72 83.5377 129 83.5377H138.92C140.2 83.5377 140.84 82.8977 140.84 81.6177L140.904 74.5137C140.947 72.0817 141.565 70.0124 142.76 68.3057C143.997 66.5564 145.491 65.6817 147.24 65.6817V81.6177Z" fill="white"/>
<path d="M143.451 54.1537L132.147 49.1857V47.9857L143.451 42.3457V44.2177L134.403 48.4897L143.451 52.2817V54.1537ZM153.97 39.8017L147.586 56.9377H145.522L151.906 39.8017H153.97ZM156.011 52.2817L165.059 48.5137L156.011 44.2177V42.3457L167.315 47.9857V49.1857L156.011 54.1537V52.2817Z" fill="white"/>
<path d="M143.451 54.1537L143.351 54.3826L143.701 54.5367V54.1537H143.451ZM132.147 49.1857H131.897V49.3489L132.047 49.4146L132.147 49.1857ZM132.147 47.9857L132.036 47.762L131.897 47.8311V47.9857H132.147ZM143.451 42.3457H143.701V41.9416L143.34 42.122L143.451 42.3457ZM143.451 44.2177L143.558 44.4438L143.701 44.3761V44.2177H143.451ZM134.403 48.4897L134.297 48.2636L133.789 48.5033L134.307 48.7203L134.403 48.4897ZM143.451 52.2817H143.701V52.1154L143.548 52.0511L143.451 52.2817ZM143.552 53.9248L132.248 48.9568L132.047 49.4146L143.351 54.3826L143.552 53.9248ZM132.397 49.1857V47.9857H131.897V49.1857H132.397ZM132.259 48.2094L143.563 42.5694L143.34 42.122L132.036 47.762L132.259 48.2094ZM143.201 42.3457V44.2177H143.701V42.3457H143.201ZM143.345 43.9916L134.297 48.2636L134.51 48.7158L143.558 44.4438L143.345 43.9916ZM134.307 48.7203L143.355 52.5123L143.548 52.0511L134.5 48.2591L134.307 48.7203ZM143.201 52.2817V54.1537H143.701V52.2817H143.201ZM153.97 39.8017L154.204 39.889L154.33 39.5517H153.97V39.8017ZM147.586 56.9377V57.1877H147.759L147.82 57.025L147.586 56.9377ZM145.522 56.9377L145.287 56.8504L145.162 57.1877H145.522V56.9377ZM151.906 39.8017V39.5517H151.732L151.671 39.7144L151.906 39.8017ZM153.735 39.7144L147.351 56.8504L147.82 57.025L154.204 39.889L153.735 39.7144ZM147.586 56.6877H145.522V57.1877H147.586V56.6877ZM145.756 57.025L152.14 39.889L151.671 39.7144L145.287 56.8504L145.756 57.025ZM151.906 40.0517H153.97V39.5517H151.906V40.0517ZM156.011 52.2817L155.915 52.0509L155.761 52.115V52.2817H156.011ZM165.059 48.5137L165.155 48.7445L165.674 48.5287L165.167 48.2879L165.059 48.5137ZM156.011 44.2177H155.761V44.3758L155.904 44.4435L156.011 44.2177ZM156.011 42.3457L156.123 42.122L155.761 41.9416V42.3457H156.011ZM167.315 47.9857H167.565V47.8311L167.427 47.762L167.315 47.9857ZM167.315 49.1857L167.416 49.4146L167.565 49.3489V49.1857H167.315ZM156.011 54.1537H155.761V54.5367L156.112 54.3826L156.011 54.1537ZM156.107 52.5125L165.155 48.7445L164.963 48.2829L155.915 52.0509L156.107 52.5125ZM165.167 48.2879L156.119 43.9919L155.904 44.4435L164.952 48.7396L165.167 48.2879ZM156.261 44.2177V42.3457H155.761V44.2177H156.261ZM155.9 42.5694L167.204 48.2094L167.427 47.762L156.123 42.122L155.9 42.5694ZM167.065 47.9857V49.1857H167.565V47.9857H167.065ZM167.215 48.9568L155.911 53.9248L156.112 54.3826L167.416 49.4146L167.215 48.9568ZM156.261 54.1537V52.2817H155.761V54.1537H156.261Z" fill="white"/>
</svg>
